<svg width="148" height="46" viewBox="0 0 148 46" fill="none" xmlns="http://www.w3.org/2000/svg">
<path d="M17.4227 21.2224H2.52295C0.924709 21.2224 0.409147 19.9335 1.33716 18.3352L10.1533 3.43549C11.1328 1.83724 13.1435 0.54834 14.7418 0.54834H29.6415C31.2397 0.54834 31.7553 1.83724 30.8273 3.43549L22.0112 18.3352C21.0316 19.9335 19.0209 21.2224 17.4227 21.2224Z" fill="#666666"/>
<path d="M17.4227 33.4411H2.52295C0.924709 33.4411 0.409147 32.1522 1.33716 30.554L10.1533 15.6542C11.0813 14.056 13.1435 12.7671 14.7418 12.7671H29.6415C31.2397 12.7671 31.7553 14.056 30.8273 15.6542L22.0112 30.554C21.0316 32.1522 19.0209 33.4411 17.4227 33.4411Z" fill="#999999"/>
<path d="M17.4227 45.6599H2.52295C0.924709 45.6599 0.409147 44.371 1.33716 42.7727L10.1533 27.873C11.0813 26.2747 13.1435 24.9858 14.7418 24.9858H29.6415C31.2397 24.9858 31.7553 26.2747 30.8273 27.873L22.0112 42.8243C21.0316 44.371 19.0209 45.6599 17.4227 45.6599Z" fill="#CCCCCC"/>
<path d="M46.1914 35.0393V11.1172H49.6972V20.552H50.2643C50.4706 20.1395 50.8315 19.6755 51.2439 19.3146C51.6564 18.9022 52.2235 18.5928 52.8937 18.2835C53.5639 18.0257 54.492 17.871 55.5231 17.871C56.812 17.871 57.9462 18.1804 58.9258 18.7475C59.9053 19.3146 60.6787 20.1395 61.2458 21.1706C61.8129 22.2018 62.1223 23.4391 62.1223 24.8827V34.9877H58.6164V25.192C58.6164 23.7485 58.2556 22.6658 57.5338 21.944C56.812 21.2738 55.7809 20.9129 54.5435 20.9129C53.0999 20.9129 51.9141 21.3769 51.0377 22.3564C50.1612 23.336 49.7488 24.6765 49.7488 26.5325V35.0393H46.1914Z" fill="#999999"/>
<path d="M69.8043 35.5031C68.6185 35.5031 67.5358 35.2969 66.5563 34.8845C65.6283 34.472 64.8549 33.8533 64.2878 33.08C63.7207 32.3067 63.4629 31.3271 63.4629 30.1929C63.4629 29.0071 63.7207 28.0791 64.2878 27.3057C64.8549 26.5324 65.6283 25.9653 66.5563 25.6044C67.5358 25.2435 68.6185 25.0372 69.8559 25.0372H74.9599V23.9546C74.9599 22.975 74.6506 22.2017 74.0835 21.583C73.5163 21.0159 72.5883 20.7065 71.351 20.7065C70.1652 20.7065 69.2372 21.0159 68.567 21.583C67.9483 22.1501 67.4843 22.8719 67.3296 23.7999L64.03 22.7172C64.2878 21.7892 64.7518 20.9643 65.3189 20.2425C65.9376 19.5207 66.7109 18.9021 67.7421 18.4381C68.7216 17.974 69.959 17.7678 71.351 17.7678C73.5163 17.7678 75.2693 18.3349 76.5066 19.4176C77.744 20.5519 78.3626 22.0985 78.3626 24.1608V31.0693C78.3626 31.7395 78.672 32.1004 79.3422 32.1004H80.7858V35.0391H78.1564C77.3831 35.0391 76.7128 34.8329 76.1973 34.4205C75.6817 34.008 75.4239 33.4409 75.4239 32.7707V32.6676H74.9084C74.7021 33.0285 74.4444 33.3893 74.0835 33.8533C73.7226 34.3174 73.207 34.6782 72.4852 35.0391C71.9181 35.3485 70.9901 35.5031 69.8043 35.5031ZM70.3199 32.616C71.7119 32.616 72.8461 32.2036 73.7226 31.4302C74.599 30.6053 75.0115 29.5226 75.0115 28.0791V27.7182H70.1136C69.1856 27.7182 68.4123 27.9244 67.8452 28.3368C67.278 28.7493 66.9687 29.3164 66.9687 30.0897C66.9687 30.8631 67.278 31.4818 67.8452 31.9458C68.5154 32.3582 69.3403 32.616 70.3199 32.616Z" fill="#999999"/>
<path d="M84.7044 35.0393L79.0332 18.2319H82.7452L87.2306 32.4614H87.7978L92.2831 18.2319H95.9952L90.324 35.0393H84.7044Z" fill="#999999"/>
<path d="M98.5735 15.9119C97.9033 15.9119 97.3362 15.7056 96.8722 15.2416C96.4082 14.7776 96.1504 14.2105 96.1504 13.5403C96.1504 12.8185 96.4082 12.2514 96.8722 11.8389C97.3362 11.3749 97.9033 11.1687 98.5735 11.1687C99.2953 11.1687 99.8624 11.3749 100.326 11.8389C100.79 12.3029 100.997 12.8701 100.997 13.5403C100.997 14.2621 100.79 14.8292 100.326 15.2416C99.8624 15.7056 99.2953 15.9119 98.5735 15.9119ZM96.8206 35.0392V18.1803H100.326V34.9877H96.8206V35.0392Z" fill="#999999"/>
<path d="M103.006 35.0393V11.1172H106.512V34.9877H103.006V35.0393Z" fill="#999999"/>
<path d="M114.4 35.5031C113.214 35.5031 112.132 35.2969 111.152 34.8845C110.224 34.472 109.451 33.8533 108.883 33.08C108.316 32.3067 108.059 31.3271 108.059 30.1929C108.059 29.0071 108.316 28.0791 108.883 27.3057C109.451 26.5324 110.224 25.9653 111.152 25.6044C112.132 25.2435 113.214 25.0372 114.452 25.0372H119.556V23.9546C119.556 22.975 119.246 22.2017 118.679 21.583C118.112 21.0159 117.184 20.7065 115.947 20.7065C114.761 20.7065 113.833 21.0159 113.163 21.583C112.544 22.1501 112.08 22.8719 111.925 23.7999L108.626 22.7172C108.883 21.7892 109.348 20.9643 109.915 20.2425C110.533 19.5207 111.307 18.9021 112.338 18.4381C113.317 17.974 114.555 17.7678 115.947 17.7678C118.112 17.7678 119.865 18.3349 121.102 19.4176C122.34 20.5519 122.958 22.0985 122.958 24.1608V31.0693C122.958 31.7395 123.268 32.1004 123.938 32.1004H125.381V35.0391H122.752C121.979 35.0391 121.309 34.8329 120.793 34.4205C120.277 34.008 120.02 33.4409 120.02 32.7707V32.6676H119.504C119.298 33.0285 119.04 33.3893 118.679 33.8533C118.318 34.3174 117.803 34.6782 117.081 35.0391C116.514 35.3485 115.534 35.5031 114.4 35.5031ZM114.916 32.616C116.308 32.616 117.442 32.2036 118.318 31.4302C119.195 30.6053 119.607 29.5226 119.607 28.0791V27.7182H114.709C113.781 27.7182 113.008 27.9244 112.441 28.3368C111.874 28.7493 111.564 29.3164 111.564 30.0897C111.564 30.8631 111.874 31.4818 112.441 31.9458C113.06 32.3582 113.884 32.616 114.916 32.616Z" fill="#999999"/>
<path d="M126.311 35.0393V11.1172H129.816V20.552H130.383C130.59 20.1395 130.951 19.6755 131.363 19.3146C131.776 18.9022 132.343 18.5928 133.013 18.2835C133.683 18.0257 134.611 17.871 135.642 17.871C136.931 17.871 138.065 18.1804 139.045 18.7475C140.024 19.3146 140.798 20.1395 141.365 21.1706C141.932 22.2018 142.241 23.4391 142.241 24.8827V34.9877H138.736V25.192C138.736 23.7485 138.375 22.6658 137.653 21.944C136.931 21.2738 135.9 20.9129 134.663 20.9129C133.219 20.9129 132.033 21.3769 131.157 22.3564C130.28 23.336 129.868 24.6765 129.868 26.5325V35.0393H126.311Z" fill="#999999"/>
<path d="M144.096 13.8499C143.993 13.8499 143.942 13.7983 143.89 13.7467C143.839 13.6952 143.787 13.5921 143.787 13.5405V12.3547H143.271V12.0969H143.787V11.4783H144.045V12.0969H144.612V12.3547H144.045V13.489C144.045 13.5405 144.096 13.5921 144.148 13.5921H144.56V13.8499H144.096Z" fill="white"/>
<path d="M144.818 13.8499V12.097H145.076V12.3032H145.128C145.179 12.2516 145.231 12.2001 145.282 12.1485C145.334 12.097 145.489 12.0454 145.592 12.0454C145.746 12.0454 145.849 12.097 145.901 12.1485C146.004 12.2001 146.056 12.3032 146.107 12.3547H146.159C146.21 12.2516 146.262 12.2001 146.365 12.1485C146.468 12.097 146.571 12.0454 146.726 12.0454C146.829 12.0454 146.932 12.0454 147.035 12.097C147.138 12.1485 147.19 12.2001 147.241 12.3032C147.293 12.4063 147.293 12.5094 147.293 12.6125V13.7983H147.035V12.6641C147.035 12.561 146.984 12.4579 146.932 12.4063C146.881 12.3547 146.777 12.3032 146.674 12.3032C146.571 12.3032 146.417 12.3547 146.365 12.4063C146.262 12.5094 146.262 12.6125 146.262 12.7672V13.7983H146.004V12.6641C146.004 12.561 145.953 12.4579 145.901 12.4063C145.849 12.3547 145.746 12.3032 145.643 12.3032C145.54 12.3032 145.385 12.3547 145.334 12.4063C145.231 12.5094 145.231 12.6125 145.231 12.7672V13.7983H144.818V13.8499Z" fill="white"/>
</svg>
